<mxfile host="app.diagrams.net" modified="2022-12-08T12:14:49.105Z" agent="5.0 (Windows)" etag="NNsCE2_StGKvmINranka" version="20.6.0" type="github">
  <diagram id="C5RBs43oDa-KdzZeNtuy" name="Page-1">
    <mxGraphModel dx="1422" dy="810" grid="1" gridSize="10" guides="1" tooltips="1" connect="1" arrows="1" fold="1" page="1" pageScale="1" pageWidth="827" pageHeight="1169" math="0" shadow="0">
      <root>
        <mxCell id="WIyWlLk6GJQsqaUBKTNV-0" />
        <mxCell id="WIyWlLk6GJQsqaUBKTNV-1" parent="WIyWlLk6GJQsqaUBKTNV-0" />
        <mxCell id="ODUvABKwUs63YnwHOw0j-36" value="DB" style="shape=umlFrame;whiteSpace=wrap;html=1;" vertex="1" parent="WIyWlLk6GJQsqaUBKTNV-1">
          <mxGeometry x="470" y="240" width="540" height="300" as="geometry" />
        </mxCell>
        <mxCell id="ODUvABKwUs63YnwHOw0j-35" value="Google" style="shape=umlFrame;whiteSpace=wrap;html=1;" vertex="1" parent="WIyWlLk6GJQsqaUBKTNV-1">
          <mxGeometry x="180" y="110" width="340" height="110" as="geometry" />
        </mxCell>
        <mxCell id="ODUvABKwUs63YnwHOw0j-26" value="GUI" style="shape=umlFrame;whiteSpace=wrap;html=1;" vertex="1" parent="WIyWlLk6GJQsqaUBKTNV-1">
          <mxGeometry x="29" y="240" width="301" height="240" as="geometry" />
        </mxCell>
        <mxCell id="ODUvABKwUs63YnwHOw0j-4" style="edgeStyle=orthogonalEdgeStyle;rounded=0;orthogonalLoop=1;jettySize=auto;html=1;exitX=1;exitY=0.5;exitDx=0;exitDy=0;entryX=0;entryY=0.5;entryDx=0;entryDy=0;" edge="1" parent="WIyWlLk6GJQsqaUBKTNV-1" source="ODUvABKwUs63YnwHOw0j-13" target="ODUvABKwUs63YnwHOw0j-3">
          <mxGeometry relative="1" as="geometry">
            <mxPoint x="160" y="340" as="sourcePoint" />
          </mxGeometry>
        </mxCell>
        <mxCell id="ODUvABKwUs63YnwHOw0j-6" style="edgeStyle=orthogonalEdgeStyle;rounded=0;orthogonalLoop=1;jettySize=auto;html=1;entryX=0;entryY=0.5;entryDx=0;entryDy=0;" edge="1" parent="WIyWlLk6GJQsqaUBKTNV-1" source="ODUvABKwUs63YnwHOw0j-3" target="ODUvABKwUs63YnwHOw0j-5">
          <mxGeometry relative="1" as="geometry" />
        </mxCell>
        <mxCell id="ODUvABKwUs63YnwHOw0j-3" value="Google forms" style="rounded=1;whiteSpace=wrap;html=1;fontSize=12;glass=0;strokeWidth=1;shadow=0;" vertex="1" parent="WIyWlLk6GJQsqaUBKTNV-1">
          <mxGeometry x="220" y="150" width="120" height="40" as="geometry" />
        </mxCell>
        <mxCell id="ODUvABKwUs63YnwHOw0j-12" style="edgeStyle=orthogonalEdgeStyle;rounded=0;orthogonalLoop=1;jettySize=auto;html=1;entryX=0;entryY=0.5;entryDx=0;entryDy=0;" edge="1" parent="WIyWlLk6GJQsqaUBKTNV-1" source="ODUvABKwUs63YnwHOw0j-5" target="ODUvABKwUs63YnwHOw0j-9">
          <mxGeometry relative="1" as="geometry" />
        </mxCell>
        <mxCell id="ODUvABKwUs63YnwHOw0j-5" value="Excel spreadsheet" style="rounded=1;whiteSpace=wrap;html=1;fontSize=12;glass=0;strokeWidth=1;shadow=0;" vertex="1" parent="WIyWlLk6GJQsqaUBKTNV-1">
          <mxGeometry x="380" y="150" width="120" height="40" as="geometry" />
        </mxCell>
        <mxCell id="ODUvABKwUs63YnwHOw0j-8" value="Student" style="swimlane;fontStyle=0;childLayout=stackLayout;horizontal=1;startSize=26;fillColor=none;horizontalStack=0;resizeParent=1;resizeParentMax=0;resizeLast=0;collapsible=1;marginBottom=0;" vertex="1" parent="WIyWlLk6GJQsqaUBKTNV-1">
          <mxGeometry x="550" y="261" width="170" height="104" as="geometry" />
        </mxCell>
        <mxCell id="ODUvABKwUs63YnwHOw0j-9" value="Nume si prenume : char 22" style="text;strokeColor=none;fillColor=none;align=left;verticalAlign=top;spacingLeft=4;spacingRight=4;overflow=hidden;rotatable=0;points=[[0,0.5],[1,0.5]];portConstraint=eastwest;" vertex="1" parent="ODUvABKwUs63YnwHOw0j-8">
          <mxGeometry y="26" width="170" height="26" as="geometry" />
        </mxCell>
        <mxCell id="ODUvABKwUs63YnwHOw0j-10" value="Email : char 22" style="text;strokeColor=none;fillColor=none;align=left;verticalAlign=top;spacingLeft=4;spacingRight=4;overflow=hidden;rotatable=0;points=[[0,0.5],[1,0.5]];portConstraint=eastwest;" vertex="1" parent="ODUvABKwUs63YnwHOw0j-8">
          <mxGeometry y="52" width="170" height="26" as="geometry" />
        </mxCell>
        <mxCell id="ODUvABKwUs63YnwHOw0j-51" value="Data si ora : data" style="text;strokeColor=none;fillColor=none;align=left;verticalAlign=top;spacingLeft=4;spacingRight=4;overflow=hidden;rotatable=0;points=[[0,0.5],[1,0.5]];portConstraint=eastwest;" vertex="1" parent="ODUvABKwUs63YnwHOw0j-8">
          <mxGeometry y="78" width="170" height="26" as="geometry" />
        </mxCell>
        <mxCell id="ODUvABKwUs63YnwHOw0j-13" value="QR Code" style="rounded=1;whiteSpace=wrap;html=1;fontSize=12;glass=0;strokeWidth=1;shadow=0;" vertex="1" parent="WIyWlLk6GJQsqaUBKTNV-1">
          <mxGeometry x="60" y="280" width="120" height="40" as="geometry" />
        </mxCell>
        <mxCell id="ODUvABKwUs63YnwHOw0j-16" value="Materie" style="swimlane;fontStyle=0;childLayout=stackLayout;horizontal=1;startSize=26;fillColor=none;horizontalStack=0;resizeParent=1;resizeParentMax=0;resizeLast=0;collapsible=1;marginBottom=0;" vertex="1" parent="WIyWlLk6GJQsqaUBKTNV-1">
          <mxGeometry x="550" y="372" width="170" height="140" as="geometry" />
        </mxCell>
        <mxCell id="ODUvABKwUs63YnwHOw0j-17" value="Nume Materie : char 22" style="text;strokeColor=none;fillColor=none;align=left;verticalAlign=top;spacingLeft=4;spacingRight=4;overflow=hidden;rotatable=0;points=[[0,0.5],[1,0.5]];portConstraint=eastwest;" vertex="1" parent="ODUvABKwUs63YnwHOw0j-16">
          <mxGeometry y="26" width="170" height="24" as="geometry" />
        </mxCell>
        <mxCell id="ODUvABKwUs63YnwHOw0j-18" value="Prezente curs : nr 2" style="text;strokeColor=none;fillColor=none;align=left;verticalAlign=top;spacingLeft=4;spacingRight=4;overflow=hidden;rotatable=0;points=[[0,0.5],[1,0.5]];portConstraint=eastwest;" vertex="1" parent="ODUvABKwUs63YnwHOw0j-16">
          <mxGeometry y="50" width="170" height="18" as="geometry" />
        </mxCell>
        <mxCell id="ODUvABKwUs63YnwHOw0j-19" value="Prezente lab : nr 2" style="text;strokeColor=none;fillColor=none;align=left;verticalAlign=top;spacingLeft=4;spacingRight=4;overflow=hidden;rotatable=0;points=[[0,0.5],[1,0.5]];portConstraint=eastwest;" vertex="1" parent="ODUvABKwUs63YnwHOw0j-16">
          <mxGeometry y="68" width="170" height="20" as="geometry" />
        </mxCell>
        <mxCell id="ODUvABKwUs63YnwHOw0j-20" value="Email: char 22" style="text;strokeColor=none;fillColor=none;align=left;verticalAlign=top;spacingLeft=4;spacingRight=4;overflow=hidden;rotatable=0;points=[[0,0.5],[1,0.5]];portConstraint=eastwest;" vertex="1" parent="ODUvABKwUs63YnwHOw0j-16">
          <mxGeometry y="88" width="170" height="22" as="geometry" />
        </mxCell>
        <mxCell id="ODUvABKwUs63YnwHOw0j-52" value="Data si ora : data" style="text;strokeColor=none;fillColor=none;align=left;verticalAlign=top;spacingLeft=4;spacingRight=4;overflow=hidden;rotatable=0;points=[[0,0.5],[1,0.5]];portConstraint=eastwest;" vertex="1" parent="ODUvABKwUs63YnwHOw0j-16">
          <mxGeometry y="110" width="170" height="30" as="geometry" />
        </mxCell>
        <mxCell id="ODUvABKwUs63YnwHOw0j-47" style="edgeStyle=orthogonalEdgeStyle;rounded=0;orthogonalLoop=1;jettySize=auto;html=1;entryX=0.5;entryY=0;entryDx=0;entryDy=0;" edge="1" parent="WIyWlLk6GJQsqaUBKTNV-1" source="ODUvABKwUs63YnwHOw0j-37" target="ODUvABKwUs63YnwHOw0j-41">
          <mxGeometry relative="1" as="geometry">
            <Array as="points">
              <mxPoint x="120" y="500" />
              <mxPoint x="160" y="500" />
            </Array>
          </mxGeometry>
        </mxCell>
        <mxCell id="ODUvABKwUs63YnwHOw0j-37" value="Send Email" style="rounded=1;whiteSpace=wrap;html=1;fontSize=12;glass=0;strokeWidth=1;shadow=0;" vertex="1" parent="WIyWlLk6GJQsqaUBKTNV-1">
          <mxGeometry x="60" y="400" width="120" height="40" as="geometry" />
        </mxCell>
        <mxCell id="ODUvABKwUs63YnwHOw0j-39" value="" style="html=1;shadow=0;dashed=0;align=center;verticalAlign=middle;shape=mxgraph.arrows2.twoWayArrow;dy=0.65;dx=22;" vertex="1" parent="WIyWlLk6GJQsqaUBKTNV-1">
          <mxGeometry x="330" y="332.5" width="140" height="55" as="geometry" />
        </mxCell>
        <mxCell id="ODUvABKwUs63YnwHOw0j-49" style="edgeStyle=orthogonalEdgeStyle;rounded=0;orthogonalLoop=1;jettySize=auto;html=1;entryX=0.16;entryY=0.55;entryDx=0;entryDy=0;entryPerimeter=0;" edge="1" parent="WIyWlLk6GJQsqaUBKTNV-1" source="ODUvABKwUs63YnwHOw0j-40" target="ODUvABKwUs63YnwHOw0j-50">
          <mxGeometry relative="1" as="geometry">
            <mxPoint x="390" y="605" as="targetPoint" />
            <Array as="points">
              <mxPoint x="350" y="644" />
            </Array>
          </mxGeometry>
        </mxCell>
        <mxCell id="ODUvABKwUs63YnwHOw0j-40" value="Email API" style="shape=umlFrame;whiteSpace=wrap;html=1;" vertex="1" parent="WIyWlLk6GJQsqaUBKTNV-1">
          <mxGeometry x="29" y="540" width="281" height="170" as="geometry" />
        </mxCell>
        <mxCell id="ODUvABKwUs63YnwHOw0j-41" value="Email via gmail api" style="swimlane;fontStyle=1;align=center;verticalAlign=top;childLayout=stackLayout;horizontal=1;startSize=26;horizontalStack=0;resizeParent=1;resizeParentMax=0;resizeLast=0;collapsible=1;marginBottom=0;" vertex="1" parent="WIyWlLk6GJQsqaUBKTNV-1">
          <mxGeometry x="80" y="576" width="160" height="98" as="geometry" />
        </mxCell>
        <mxCell id="ODUvABKwUs63YnwHOw0j-45" value="toEmail : adresa student" style="text;strokeColor=none;fillColor=none;align=left;verticalAlign=top;spacingLeft=4;spacingRight=4;overflow=hidden;rotatable=0;points=[[0,0.5],[1,0.5]];portConstraint=eastwest;" vertex="1" parent="ODUvABKwUs63YnwHOw0j-41">
          <mxGeometry y="26" width="160" height="24" as="geometry" />
        </mxCell>
        <mxCell id="ODUvABKwUs63YnwHOw0j-44" value="Subject : Situatie materie X" style="text;strokeColor=none;fillColor=none;align=left;verticalAlign=top;spacingLeft=4;spacingRight=4;overflow=hidden;rotatable=0;points=[[0,0.5],[1,0.5]];portConstraint=eastwest;" vertex="1" parent="ODUvABKwUs63YnwHOw0j-41">
          <mxGeometry y="50" width="160" height="24" as="geometry" />
        </mxCell>
        <mxCell id="ODUvABKwUs63YnwHOw0j-46" value="Body :Situatia din DB" style="text;strokeColor=none;fillColor=none;align=left;verticalAlign=top;spacingLeft=4;spacingRight=4;overflow=hidden;rotatable=0;points=[[0,0.5],[1,0.5]];portConstraint=eastwest;" vertex="1" parent="ODUvABKwUs63YnwHOw0j-41">
          <mxGeometry y="74" width="160" height="24" as="geometry" />
        </mxCell>
        <mxCell id="ODUvABKwUs63YnwHOw0j-50" value="Studentii care nu au prezente suficiente la materia X" style="ellipse;shape=cloud;whiteSpace=wrap;html=1;align=center;" vertex="1" parent="WIyWlLk6GJQsqaUBKTNV-1">
          <mxGeometry x="390" y="550" width="210" height="170" as="geometry" />
        </mxCell>
        <mxCell id="ODUvABKwUs63YnwHOw0j-53" value="Calendar" style="swimlane;fontStyle=0;childLayout=stackLayout;horizontal=1;startSize=26;fillColor=none;horizontalStack=0;resizeParent=1;resizeParentMax=0;resizeLast=0;collapsible=1;marginBottom=0;" vertex="1" parent="WIyWlLk6GJQsqaUBKTNV-1">
          <mxGeometry x="800" y="320" width="170" height="90" as="geometry" />
        </mxCell>
        <mxCell id="ODUvABKwUs63YnwHOw0j-58" value="Data si ora : data" style="text;strokeColor=none;fillColor=none;align=left;verticalAlign=top;spacingLeft=4;spacingRight=4;overflow=hidden;rotatable=0;points=[[0,0.5],[1,0.5]];portConstraint=eastwest;" vertex="1" parent="ODUvABKwUs63YnwHOw0j-53">
          <mxGeometry y="26" width="170" height="30" as="geometry" />
        </mxCell>
        <mxCell id="ODUvABKwUs63YnwHOw0j-54" value="Nume Materie" style="text;strokeColor=none;fillColor=none;align=left;verticalAlign=top;spacingLeft=4;spacingRight=4;overflow=hidden;rotatable=0;points=[[0,0.5],[1,0.5]];portConstraint=eastwest;" vertex="1" parent="ODUvABKwUs63YnwHOw0j-53">
          <mxGeometry y="56" width="170" height="34" as="geometry" />
        </mxCell>
        <mxCell id="ODUvABKwUs63YnwHOw0j-60" style="edgeStyle=orthogonalEdgeStyle;rounded=0;orthogonalLoop=1;jettySize=auto;html=1;exitX=0;exitY=0.5;exitDx=0;exitDy=0;entryX=0;entryY=0.5;entryDx=0;entryDy=0;" edge="1" parent="WIyWlLk6GJQsqaUBKTNV-1" source="ODUvABKwUs63YnwHOw0j-10" target="ODUvABKwUs63YnwHOw0j-20">
          <mxGeometry relative="1" as="geometry" />
        </mxCell>
        <mxCell id="ODUvABKwUs63YnwHOw0j-61" style="edgeStyle=orthogonalEdgeStyle;rounded=0;orthogonalLoop=1;jettySize=auto;html=1;exitX=1;exitY=0.5;exitDx=0;exitDy=0;entryX=0;entryY=0.5;entryDx=0;entryDy=0;" edge="1" parent="WIyWlLk6GJQsqaUBKTNV-1" source="ODUvABKwUs63YnwHOw0j-51" target="ODUvABKwUs63YnwHOw0j-58">
          <mxGeometry relative="1" as="geometry" />
        </mxCell>
        <mxCell id="ODUvABKwUs63YnwHOw0j-62" style="edgeStyle=orthogonalEdgeStyle;rounded=0;orthogonalLoop=1;jettySize=auto;html=1;exitX=0;exitY=0.5;exitDx=0;exitDy=0;entryX=1;entryY=0.5;entryDx=0;entryDy=0;" edge="1" parent="WIyWlLk6GJQsqaUBKTNV-1" source="ODUvABKwUs63YnwHOw0j-54" target="ODUvABKwUs63YnwHOw0j-17">
          <mxGeometry relative="1" as="geometry" />
        </mxCell>
      </root>
    </mxGraphModel>
  </diagram>
</mxfile>
